<mxfile host="65bd71144e">
    <diagram name="Page-1" id="c37626ed-c26b-45fb-9056-f9ebc6bb27b6">
        <mxGraphModel dx="2270" dy="1482" grid="1" gridSize="10" guides="1" tooltips="1" connect="1" arrows="1" fold="1" page="1" pageScale="1" pageWidth="1100" pageHeight="850" background="none" math="0" shadow="0">
            <root>
                <mxCell id="0"/>
                <mxCell id="1" parent="0"/>
                <mxCell id="z0bDpxa67WknkqCjIjLZ-64" value="Server" style="rounded=1;whiteSpace=wrap;html=1;shadow=0;comic=0;strokeColor=#314354;strokeWidth=2;fillColor=#647687;fontFamily=Verdana;fontSize=28;fontColor=#ffffff;align=center;arcSize=11;verticalAlign=top;" parent="1" vertex="1">
                    <mxGeometry x="216" y="5" width="590" height="340" as="geometry"/>
                </mxCell>
                <mxCell id="z0bDpxa67WknkqCjIjLZ-62" value="Office" style="rounded=1;whiteSpace=wrap;html=1;shadow=0;comic=0;strokeColor=#314354;strokeWidth=2;fillColor=#647687;fontFamily=Verdana;fontSize=28;fontColor=#ffffff;align=center;arcSize=11;verticalAlign=top;" parent="1" vertex="1">
                    <mxGeometry x="215" y="410" width="590" height="340" as="geometry"/>
                </mxCell>
                <mxCell id="z0bDpxa67WknkqCjIjLZ-61" value="Intranet" style="rounded=1;whiteSpace=wrap;html=1;shadow=0;comic=0;strokeColor=#314354;strokeWidth=2;fillColor=#647687;fontFamily=Verdana;fontSize=28;fontColor=#ffffff;align=center;arcSize=11;verticalAlign=top;" parent="1" vertex="1">
                    <mxGeometry x="215" y="790" width="590" height="340" as="geometry"/>
                </mxCell>
                <mxCell id="z0bDpxa67WknkqCjIjLZ-60" value="Data server" style="rounded=1;whiteSpace=wrap;html=1;shadow=0;comic=0;strokeColor=#006EAF;strokeWidth=2;fillColor=#1ba1e2;fontFamily=Verdana;fontSize=28;align=center;arcSize=11;verticalAlign=top;fontColor=#ffffff;" parent="1" vertex="1">
                    <mxGeometry x="210" y="1180" width="590" height="360" as="geometry"/>
                </mxCell>
                <mxCell id="z0bDpxa67WknkqCjIjLZ-23" value="" style="image;html=1;image=img/lib/clip_art/networking/Firewall_02_128x128.png" parent="1" vertex="1">
                    <mxGeometry x="446" y="55" width="80" height="80" as="geometry"/>
                </mxCell>
                <mxCell id="z0bDpxa67WknkqCjIjLZ-25" value="" style="endArrow=none;html=1;rounded=0;strokeWidth=3;entryX=0.6;entryY=0;entryDx=0;entryDy=0;entryPerimeter=0;exitX=0.5;exitY=1;exitDx=0;exitDy=0;" parent="1" source="z0bDpxa67WknkqCjIjLZ-23" target="z0bDpxa67WknkqCjIjLZ-26" edge="1">
                    <mxGeometry width="50" height="50" relative="1" as="geometry">
                        <mxPoint x="-420" y="150" as="sourcePoint"/>
                        <mxPoint x="-370" y="210" as="targetPoint"/>
                    </mxGeometry>
                </mxCell>
                <mxCell id="z0bDpxa67WknkqCjIjLZ-26" value="" style="fontColor=#0066CC;verticalAlign=top;verticalLabelPosition=bottom;labelPosition=center;align=center;html=1;fillColor=#CCCCCC;strokeColor=#6881B3;gradientColor=none;gradientDirection=north;strokeWidth=2;shape=mxgraph.networks.pc;rounded=0;shadow=0;comic=0;" parent="1" vertex="1">
                    <mxGeometry x="576.0000000000002" y="225" width="100" height="70" as="geometry"/>
                </mxCell>
                <mxCell id="z0bDpxa67WknkqCjIjLZ-28" value="" style="fontColor=#0066CC;verticalAlign=top;verticalLabelPosition=bottom;labelPosition=center;align=center;html=1;fillColor=#CCCCCC;strokeColor=#6881B3;gradientColor=none;gradientDirection=north;strokeWidth=2;shape=mxgraph.networks.pc;rounded=0;shadow=0;comic=0;" parent="1" vertex="1">
                    <mxGeometry x="416.0000000000002" y="225" width="100" height="70" as="geometry"/>
                </mxCell>
                <mxCell id="z0bDpxa67WknkqCjIjLZ-29" value="" style="fontColor=#0066CC;verticalAlign=top;verticalLabelPosition=bottom;labelPosition=center;align=center;html=1;fillColor=#CCCCCC;strokeColor=#6881B3;gradientColor=none;gradientDirection=north;strokeWidth=2;shape=mxgraph.networks.pc;rounded=0;shadow=0;comic=0;" parent="1" vertex="1">
                    <mxGeometry x="266.0000000000002" y="225" width="100" height="70" as="geometry"/>
                </mxCell>
                <mxCell id="z0bDpxa67WknkqCjIjLZ-30" value="" style="endArrow=none;html=1;rounded=0;strokeWidth=3;entryX=0.5;entryY=0.07;entryDx=0;entryDy=0;entryPerimeter=0;exitX=0.5;exitY=1;exitDx=0;exitDy=0;" parent="1" source="z0bDpxa67WknkqCjIjLZ-23" target="z0bDpxa67WknkqCjIjLZ-29" edge="1">
                    <mxGeometry width="50" height="50" relative="1" as="geometry">
                        <mxPoint x="-650" y="80" as="sourcePoint"/>
                        <mxPoint x="-280" y="250" as="targetPoint"/>
                    </mxGeometry>
                </mxCell>
                <mxCell id="z0bDpxa67WknkqCjIjLZ-31" value="" style="endArrow=none;html=1;rounded=0;strokeWidth=3;exitX=0.5;exitY=1;exitDx=0;exitDy=0;entryX=0.655;entryY=0.062;entryDx=0;entryDy=0;entryPerimeter=0;" parent="1" source="z0bDpxa67WknkqCjIjLZ-23" target="z0bDpxa67WknkqCjIjLZ-28" edge="1">
                    <mxGeometry width="50" height="50" relative="1" as="geometry">
                        <mxPoint x="-650" y="80" as="sourcePoint"/>
                        <mxPoint x="-540" y="240" as="targetPoint"/>
                    </mxGeometry>
                </mxCell>
                <mxCell id="z0bDpxa67WknkqCjIjLZ-32" value="" style="image;html=1;image=img/lib/clip_art/networking/Firewall_02_128x128.png" parent="1" vertex="1">
                    <mxGeometry x="890" y="540" width="80" height="80" as="geometry"/>
                </mxCell>
                <mxCell id="z0bDpxa67WknkqCjIjLZ-33" value="" style="image;html=1;image=img/lib/clip_art/networking/Firewall_02_128x128.png" parent="1" vertex="1">
                    <mxGeometry x="470" y="450" width="80" height="80" as="geometry"/>
                </mxCell>
                <mxCell id="z0bDpxa67WknkqCjIjLZ-34" value="" style="endArrow=none;html=1;rounded=0;strokeWidth=3;entryX=0.6;entryY=0;entryDx=0;entryDy=0;entryPerimeter=0;exitX=0.5;exitY=1;exitDx=0;exitDy=0;" parent="1" source="z0bDpxa67WknkqCjIjLZ-33" target="z0bDpxa67WknkqCjIjLZ-35" edge="1">
                    <mxGeometry width="50" height="50" relative="1" as="geometry">
                        <mxPoint x="255" y="440" as="sourcePoint"/>
                        <mxPoint x="305" y="500" as="targetPoint"/>
                    </mxGeometry>
                </mxCell>
                <mxCell id="z0bDpxa67WknkqCjIjLZ-35" value="" style="fontColor=#0066CC;verticalAlign=top;verticalLabelPosition=bottom;labelPosition=center;align=center;html=1;fillColor=#CCCCCC;strokeColor=#6881B3;gradientColor=none;gradientDirection=north;strokeWidth=2;shape=mxgraph.networks.pc;rounded=0;shadow=0;comic=0;" parent="1" vertex="1">
                    <mxGeometry x="600.0000000000002" y="620" width="100" height="70" as="geometry"/>
                </mxCell>
                <mxCell id="z0bDpxa67WknkqCjIjLZ-36" value="" style="fontColor=#0066CC;verticalAlign=top;verticalLabelPosition=bottom;labelPosition=center;align=center;html=1;fillColor=#CCCCCC;strokeColor=#6881B3;gradientColor=none;gradientDirection=north;strokeWidth=2;shape=mxgraph.networks.pc;rounded=0;shadow=0;comic=0;" parent="1" vertex="1">
                    <mxGeometry x="440.0000000000002" y="620" width="100" height="70" as="geometry"/>
                </mxCell>
                <mxCell id="z0bDpxa67WknkqCjIjLZ-37" value="" style="fontColor=#0066CC;verticalAlign=top;verticalLabelPosition=bottom;labelPosition=center;align=center;html=1;fillColor=#CCCCCC;strokeColor=#6881B3;gradientColor=none;gradientDirection=north;strokeWidth=2;shape=mxgraph.networks.pc;rounded=0;shadow=0;comic=0;" parent="1" vertex="1">
                    <mxGeometry x="290.0000000000002" y="620" width="100" height="70" as="geometry"/>
                </mxCell>
                <mxCell id="z0bDpxa67WknkqCjIjLZ-38" value="" style="endArrow=none;html=1;rounded=0;strokeWidth=3;entryX=0.5;entryY=0.07;entryDx=0;entryDy=0;entryPerimeter=0;exitX=0.5;exitY=1;exitDx=0;exitDy=0;" parent="1" source="z0bDpxa67WknkqCjIjLZ-33" target="z0bDpxa67WknkqCjIjLZ-37" edge="1">
                    <mxGeometry width="50" height="50" relative="1" as="geometry">
                        <mxPoint x="25" y="370" as="sourcePoint"/>
                        <mxPoint x="395" y="540" as="targetPoint"/>
                    </mxGeometry>
                </mxCell>
                <mxCell id="z0bDpxa67WknkqCjIjLZ-39" value="" style="endArrow=none;html=1;rounded=0;strokeWidth=3;exitX=0.5;exitY=1;exitDx=0;exitDy=0;entryX=0.655;entryY=0.062;entryDx=0;entryDy=0;entryPerimeter=0;" parent="1" source="z0bDpxa67WknkqCjIjLZ-33" target="z0bDpxa67WknkqCjIjLZ-36" edge="1">
                    <mxGeometry width="50" height="50" relative="1" as="geometry">
                        <mxPoint x="25" y="370" as="sourcePoint"/>
                        <mxPoint x="135" y="530" as="targetPoint"/>
                    </mxGeometry>
                </mxCell>
                <mxCell id="z0bDpxa67WknkqCjIjLZ-40" value="" style="image;html=1;image=img/lib/clip_art/networking/Firewall_02_128x128.png" parent="1" vertex="1">
                    <mxGeometry x="455" y="830" width="80" height="80" as="geometry"/>
                </mxCell>
                <mxCell id="z0bDpxa67WknkqCjIjLZ-41" value="" style="endArrow=none;html=1;rounded=0;strokeWidth=3;entryX=0.6;entryY=0;entryDx=0;entryDy=0;entryPerimeter=0;exitX=0.5;exitY=1;exitDx=0;exitDy=0;" parent="1" source="z0bDpxa67WknkqCjIjLZ-40" target="z0bDpxa67WknkqCjIjLZ-42" edge="1">
                    <mxGeometry width="50" height="50" relative="1" as="geometry">
                        <mxPoint x="250" y="730" as="sourcePoint"/>
                        <mxPoint x="300" y="790" as="targetPoint"/>
                    </mxGeometry>
                </mxCell>
                <mxCell id="z0bDpxa67WknkqCjIjLZ-42" value="" style="fontColor=#0066CC;verticalAlign=top;verticalLabelPosition=bottom;labelPosition=center;align=center;html=1;fillColor=#CCCCCC;strokeColor=#6881B3;gradientColor=none;gradientDirection=north;strokeWidth=2;shape=mxgraph.networks.pc;rounded=0;shadow=0;comic=0;" parent="1" vertex="1">
                    <mxGeometry x="585.0000000000002" y="1000" width="100" height="70" as="geometry"/>
                </mxCell>
                <mxCell id="z0bDpxa67WknkqCjIjLZ-43" value="" style="fontColor=#0066CC;verticalAlign=top;verticalLabelPosition=bottom;labelPosition=center;align=center;html=1;fillColor=#CCCCCC;strokeColor=#6881B3;gradientColor=none;gradientDirection=north;strokeWidth=2;shape=mxgraph.networks.pc;rounded=0;shadow=0;comic=0;" parent="1" vertex="1">
                    <mxGeometry x="425.0000000000002" y="1000" width="100" height="70" as="geometry"/>
                </mxCell>
                <mxCell id="z0bDpxa67WknkqCjIjLZ-44" value="" style="fontColor=#0066CC;verticalAlign=top;verticalLabelPosition=bottom;labelPosition=center;align=center;html=1;fillColor=#CCCCCC;strokeColor=#6881B3;gradientColor=none;gradientDirection=north;strokeWidth=2;shape=mxgraph.networks.pc;rounded=0;shadow=0;comic=0;" parent="1" vertex="1">
                    <mxGeometry x="275.0000000000002" y="1000" width="100" height="70" as="geometry"/>
                </mxCell>
                <mxCell id="z0bDpxa67WknkqCjIjLZ-45" value="" style="endArrow=none;html=1;rounded=0;strokeWidth=3;entryX=0.5;entryY=0.07;entryDx=0;entryDy=0;entryPerimeter=0;exitX=0.5;exitY=1;exitDx=0;exitDy=0;" parent="1" source="z0bDpxa67WknkqCjIjLZ-40" target="z0bDpxa67WknkqCjIjLZ-44" edge="1">
                    <mxGeometry width="50" height="50" relative="1" as="geometry">
                        <mxPoint x="20" y="660" as="sourcePoint"/>
                        <mxPoint x="390" y="830" as="targetPoint"/>
                    </mxGeometry>
                </mxCell>
                <mxCell id="z0bDpxa67WknkqCjIjLZ-46" value="" style="endArrow=none;html=1;rounded=0;strokeWidth=3;exitX=0.5;exitY=1;exitDx=0;exitDy=0;entryX=0.655;entryY=0.062;entryDx=0;entryDy=0;entryPerimeter=0;" parent="1" source="z0bDpxa67WknkqCjIjLZ-40" target="z0bDpxa67WknkqCjIjLZ-43" edge="1">
                    <mxGeometry width="50" height="50" relative="1" as="geometry">
                        <mxPoint x="20" y="660" as="sourcePoint"/>
                        <mxPoint x="130" y="820" as="targetPoint"/>
                    </mxGeometry>
                </mxCell>
                <mxCell id="z0bDpxa67WknkqCjIjLZ-47" value="" style="image;html=1;image=img/lib/clip_art/networking/Firewall_02_128x128.png" parent="1" vertex="1">
                    <mxGeometry x="445" y="1240" width="80" height="80" as="geometry"/>
                </mxCell>
                <mxCell id="z0bDpxa67WknkqCjIjLZ-48" value="" style="endArrow=none;html=1;rounded=0;strokeWidth=3;entryX=0.6;entryY=0;entryDx=0;entryDy=0;entryPerimeter=0;exitX=0.5;exitY=1;exitDx=0;exitDy=0;" parent="1" source="z0bDpxa67WknkqCjIjLZ-47" target="z0bDpxa67WknkqCjIjLZ-49" edge="1">
                    <mxGeometry width="50" height="50" relative="1" as="geometry">
                        <mxPoint x="250" y="1020" as="sourcePoint"/>
                        <mxPoint x="300" y="1080" as="targetPoint"/>
                    </mxGeometry>
                </mxCell>
                <mxCell id="z0bDpxa67WknkqCjIjLZ-49" value="" style="fontColor=#0066CC;verticalAlign=top;verticalLabelPosition=bottom;labelPosition=center;align=center;html=1;fillColor=#CCCCCC;strokeColor=#6881B3;gradientColor=none;gradientDirection=north;strokeWidth=2;shape=mxgraph.networks.pc;rounded=0;shadow=0;comic=0;" parent="1" vertex="1">
                    <mxGeometry x="575.0000000000002" y="1410" width="100" height="70" as="geometry"/>
                </mxCell>
                <mxCell id="z0bDpxa67WknkqCjIjLZ-50" value="" style="fontColor=#0066CC;verticalAlign=top;verticalLabelPosition=bottom;labelPosition=center;align=center;html=1;fillColor=#CCCCCC;strokeColor=#6881B3;gradientColor=none;gradientDirection=north;strokeWidth=2;shape=mxgraph.networks.pc;rounded=0;shadow=0;comic=0;" parent="1" vertex="1">
                    <mxGeometry x="415.0000000000002" y="1410" width="100" height="70" as="geometry"/>
                </mxCell>
                <mxCell id="z0bDpxa67WknkqCjIjLZ-51" value="" style="fontColor=#0066CC;verticalAlign=top;verticalLabelPosition=bottom;labelPosition=center;align=center;html=1;fillColor=#CCCCCC;strokeColor=#6881B3;gradientColor=none;gradientDirection=north;strokeWidth=2;shape=mxgraph.networks.pc;rounded=0;shadow=0;comic=0;" parent="1" vertex="1">
                    <mxGeometry x="265.0000000000002" y="1410" width="100" height="70" as="geometry"/>
                </mxCell>
                <mxCell id="z0bDpxa67WknkqCjIjLZ-52" value="" style="endArrow=none;html=1;rounded=0;strokeWidth=3;entryX=0.5;entryY=0.07;entryDx=0;entryDy=0;entryPerimeter=0;exitX=0.5;exitY=1;exitDx=0;exitDy=0;" parent="1" source="z0bDpxa67WknkqCjIjLZ-47" target="z0bDpxa67WknkqCjIjLZ-51" edge="1">
                    <mxGeometry width="50" height="50" relative="1" as="geometry">
                        <mxPoint x="20" y="950" as="sourcePoint"/>
                        <mxPoint x="390" y="1120" as="targetPoint"/>
                    </mxGeometry>
                </mxCell>
                <mxCell id="z0bDpxa67WknkqCjIjLZ-53" value="" style="endArrow=none;html=1;rounded=0;strokeWidth=3;exitX=0.5;exitY=1;exitDx=0;exitDy=0;entryX=0.655;entryY=0.062;entryDx=0;entryDy=0;entryPerimeter=0;" parent="1" source="z0bDpxa67WknkqCjIjLZ-47" target="z0bDpxa67WknkqCjIjLZ-50" edge="1">
                    <mxGeometry width="50" height="50" relative="1" as="geometry">
                        <mxPoint x="20" y="950" as="sourcePoint"/>
                        <mxPoint x="130" y="1110" as="targetPoint"/>
                    </mxGeometry>
                </mxCell>
                <mxCell id="z0bDpxa67WknkqCjIjLZ-56" value="" style="endArrow=none;html=1;rounded=0;strokeWidth=3;exitX=1;exitY=0.5;exitDx=0;exitDy=0;entryX=0.5;entryY=0;entryDx=0;entryDy=0;" parent="1" source="z0bDpxa67WknkqCjIjLZ-23" target="z0bDpxa67WknkqCjIjLZ-32" edge="1">
                    <mxGeometry width="50" height="50" relative="1" as="geometry">
                        <mxPoint x="640" y="80" as="sourcePoint"/>
                        <mxPoint x="920" y="90" as="targetPoint"/>
                        <Array as="points">
                            <mxPoint x="930" y="95"/>
                        </Array>
                    </mxGeometry>
                </mxCell>
                <mxCell id="z0bDpxa67WknkqCjIjLZ-57" value="" style="endArrow=none;html=1;rounded=0;strokeWidth=3;exitX=1;exitY=0.5;exitDx=0;exitDy=0;entryX=0.25;entryY=0;entryDx=0;entryDy=0;" parent="1" source="z0bDpxa67WknkqCjIjLZ-33" target="z0bDpxa67WknkqCjIjLZ-32" edge="1">
                    <mxGeometry width="50" height="50" relative="1" as="geometry">
                        <mxPoint x="630" y="390" as="sourcePoint"/>
                        <mxPoint x="900" y="390" as="targetPoint"/>
                        <Array as="points">
                            <mxPoint x="910" y="490"/>
                        </Array>
                    </mxGeometry>
                </mxCell>
                <mxCell id="z0bDpxa67WknkqCjIjLZ-58" value="" style="endArrow=none;html=1;rounded=0;strokeWidth=3;exitX=1;exitY=0.5;exitDx=0;exitDy=0;entryX=0.25;entryY=1;entryDx=0;entryDy=0;" parent="1" source="z0bDpxa67WknkqCjIjLZ-40" target="z0bDpxa67WknkqCjIjLZ-32" edge="1">
                    <mxGeometry width="50" height="50" relative="1" as="geometry">
                        <mxPoint x="630" y="700" as="sourcePoint"/>
                        <mxPoint x="920" y="680" as="targetPoint"/>
                        <Array as="points">
                            <mxPoint x="910" y="870"/>
                        </Array>
                    </mxGeometry>
                </mxCell>
                <mxCell id="z0bDpxa67WknkqCjIjLZ-59" value="" style="endArrow=none;html=1;rounded=0;strokeWidth=3;exitX=1;exitY=0.5;exitDx=0;exitDy=0;entryX=0.5;entryY=1;entryDx=0;entryDy=0;" parent="1" source="z0bDpxa67WknkqCjIjLZ-47" target="z0bDpxa67WknkqCjIjLZ-32" edge="1">
                    <mxGeometry width="50" height="50" relative="1" as="geometry">
                        <mxPoint x="600" y="950" as="sourcePoint"/>
                        <mxPoint x="940" y="970" as="targetPoint"/>
                        <Array as="points">
                            <mxPoint x="930" y="1280"/>
                        </Array>
                    </mxGeometry>
                </mxCell>
                <mxCell id="z0bDpxa67WknkqCjIjLZ-65" value="" style="endArrow=none;html=1;rounded=0;strokeWidth=3;exitX=1;exitY=0.5;exitDx=0;exitDy=0;entryX=0;entryY=0.5;entryDx=0;entryDy=0;entryPerimeter=0;" parent="1" source="z0bDpxa67WknkqCjIjLZ-32" target="z0bDpxa67WknkqCjIjLZ-66" edge="1">
                    <mxGeometry width="50" height="50" relative="1" as="geometry">
                        <mxPoint x="730" y="600" as="sourcePoint"/>
                        <mxPoint x="1100" y="600" as="targetPoint"/>
                    </mxGeometry>
                </mxCell>
                <mxCell id="z0bDpxa67WknkqCjIjLZ-66" value="" style="fontColor=#0066CC;verticalAlign=top;verticalLabelPosition=bottom;labelPosition=center;align=center;html=1;fillColor=#CCCCCC;strokeColor=#6881B3;gradientColor=none;gradientDirection=north;strokeWidth=2;shape=mxgraph.networks.router;rounded=0;shadow=0;comic=0;" parent="1" vertex="1">
                    <mxGeometry x="1150" y="565" width="100" height="30" as="geometry"/>
                </mxCell>
                <mxCell id="z0bDpxa67WknkqCjIjLZ-71" value="" style="endArrow=none;html=1;rounded=0;strokeWidth=3;exitX=0.5;exitY=0;exitDx=0;exitDy=0;exitPerimeter=0;entryX=0;entryY=0.5;entryDx=0;entryDy=0;entryPerimeter=0;" parent="1" source="z0bDpxa67WknkqCjIjLZ-66" target="z0bDpxa67WknkqCjIjLZ-85" edge="1">
                    <mxGeometry width="50" height="50" relative="1" as="geometry">
                        <mxPoint x="1300" y="520" as="sourcePoint"/>
                        <mxPoint x="1200" y="90" as="targetPoint"/>
                        <Array as="points">
                            <mxPoint x="1200" y="85"/>
                        </Array>
                    </mxGeometry>
                </mxCell>
                <mxCell id="z0bDpxa67WknkqCjIjLZ-85" value="" style="fontColor=#0066CC;verticalAlign=top;verticalLabelPosition=bottom;labelPosition=center;align=center;html=1;fillColor=#CCCCCC;strokeColor=#6881B3;gradientColor=none;gradientDirection=north;strokeWidth=2;shape=mxgraph.networks.router;rounded=0;shadow=0;comic=0;" parent="1" vertex="1">
                    <mxGeometry x="1500" y="70" width="100" height="30" as="geometry"/>
                </mxCell>
                <mxCell id="z0bDpxa67WknkqCjIjLZ-86" value="" style="fontColor=#0066CC;verticalAlign=top;verticalLabelPosition=bottom;labelPosition=center;align=center;html=1;fillColor=#CCCCCC;strokeColor=#6881B3;gradientColor=none;gradientDirection=north;strokeWidth=2;shape=mxgraph.networks.router;rounded=0;shadow=0;comic=0;" parent="1" vertex="1">
                    <mxGeometry x="1500" y="225" width="100" height="30" as="geometry"/>
                </mxCell>
                <mxCell id="z0bDpxa67WknkqCjIjLZ-87" value="" style="pointerEvents=1;shadow=0;dashed=0;html=1;strokeColor=none;fillColor=#4495D1;labelPosition=center;verticalLabelPosition=bottom;verticalAlign=top;align=center;outlineConnect=0;shape=mxgraph.veeam.vmware_host;" parent="1" vertex="1">
                    <mxGeometry x="1850" y="100" width="108" height="104" as="geometry"/>
                </mxCell>
                <mxCell id="z0bDpxa67WknkqCjIjLZ-89" value="" style="endArrow=none;html=1;rounded=0;strokeWidth=5;exitX=1;exitY=0.5;exitDx=0;exitDy=0;exitPerimeter=0;" parent="1" source="z0bDpxa67WknkqCjIjLZ-85" target="z0bDpxa67WknkqCjIjLZ-87" edge="1">
                    <mxGeometry width="50" height="50" relative="1" as="geometry">
                        <mxPoint x="1730" y="200" as="sourcePoint"/>
                        <mxPoint x="1780" y="150" as="targetPoint"/>
                    </mxGeometry>
                </mxCell>
                <mxCell id="3" value="" style="endArrow=none;html=1;rounded=0;strokeWidth=5;exitX=0.95;exitY=0.05;exitDx=0;exitDy=0;exitPerimeter=0;entryX=0;entryY=0.5;entryDx=0;entryDy=0;entryPerimeter=0;" edge="1" parent="1" source="z0bDpxa67WknkqCjIjLZ-66" target="z0bDpxa67WknkqCjIjLZ-86">
                    <mxGeometry width="50" height="50" relative="1" as="geometry">
                        <mxPoint x="1250" y="520" as="sourcePoint"/>
                        <mxPoint x="1360" y="230" as="targetPoint"/>
                        <Array as="points">
                            <mxPoint x="1250" y="240"/>
                        </Array>
                    </mxGeometry>
                </mxCell>
                <mxCell id="7" value="" style="endArrow=none;html=1;rounded=0;strokeWidth=5;entryX=0.5;entryY=0;entryDx=0;entryDy=0;entryPerimeter=0;exitX=0.5;exitY=1;exitDx=0;exitDy=0;exitPerimeter=0;" edge="1" parent="1" source="z0bDpxa67WknkqCjIjLZ-85" target="z0bDpxa67WknkqCjIjLZ-86">
                    <mxGeometry width="50" height="50" relative="1" as="geometry">
                        <mxPoint x="1260" y="590" as="sourcePoint"/>
                        <mxPoint x="1750" y="400" as="targetPoint"/>
                    </mxGeometry>
                </mxCell>
                <mxCell id="9" value="VPN" style="rounded=1;whiteSpace=wrap;html=1;shadow=0;comic=0;strokeColor=#A50040;strokeWidth=2;fillColor=#d80073;fontFamily=Verdana;fontSize=28;align=center;arcSize=11;verticalAlign=top;fontColor=#ffffff;" vertex="1" parent="1">
                    <mxGeometry x="1100" y="1210" width="590" height="360" as="geometry"/>
                </mxCell>
                <mxCell id="10" value="" style="image;html=1;image=img/lib/clip_art/networking/Firewall_02_128x128.png" vertex="1" parent="1">
                    <mxGeometry x="1335" y="1270" width="80" height="80" as="geometry"/>
                </mxCell>
                <mxCell id="11" value="" style="endArrow=none;html=1;rounded=0;strokeWidth=3;entryX=0.6;entryY=0;entryDx=0;entryDy=0;entryPerimeter=0;exitX=0.5;exitY=1;exitDx=0;exitDy=0;" edge="1" parent="1" source="10" target="12">
                    <mxGeometry width="50" height="50" relative="1" as="geometry">
                        <mxPoint x="1140" y="1050" as="sourcePoint"/>
                        <mxPoint x="1190" y="1110" as="targetPoint"/>
                    </mxGeometry>
                </mxCell>
                <mxCell id="12" value="" style="fontColor=#0066CC;verticalAlign=top;verticalLabelPosition=bottom;labelPosition=center;align=center;html=1;fillColor=#CCCCCC;strokeColor=#6881B3;gradientColor=none;gradientDirection=north;strokeWidth=2;shape=mxgraph.networks.pc;rounded=0;shadow=0;comic=0;" vertex="1" parent="1">
                    <mxGeometry x="1465.0000000000002" y="1440" width="100" height="70" as="geometry"/>
                </mxCell>
                <mxCell id="13" value="" style="fontColor=#0066CC;verticalAlign=top;verticalLabelPosition=bottom;labelPosition=center;align=center;html=1;fillColor=#CCCCCC;strokeColor=#6881B3;gradientColor=none;gradientDirection=north;strokeWidth=2;shape=mxgraph.networks.pc;rounded=0;shadow=0;comic=0;" vertex="1" parent="1">
                    <mxGeometry x="1305.0000000000002" y="1440" width="100" height="70" as="geometry"/>
                </mxCell>
                <mxCell id="14" value="" style="fontColor=#0066CC;verticalAlign=top;verticalLabelPosition=bottom;labelPosition=center;align=center;html=1;fillColor=#CCCCCC;strokeColor=#6881B3;gradientColor=none;gradientDirection=north;strokeWidth=2;shape=mxgraph.networks.pc;rounded=0;shadow=0;comic=0;" vertex="1" parent="1">
                    <mxGeometry x="1155.0000000000002" y="1440" width="100" height="70" as="geometry"/>
                </mxCell>
                <mxCell id="15" value="" style="endArrow=none;html=1;rounded=0;strokeWidth=3;entryX=0.5;entryY=0.07;entryDx=0;entryDy=0;entryPerimeter=0;exitX=0.5;exitY=1;exitDx=0;exitDy=0;" edge="1" parent="1" source="10" target="14">
                    <mxGeometry width="50" height="50" relative="1" as="geometry">
                        <mxPoint x="910" y="980" as="sourcePoint"/>
                        <mxPoint x="1280" y="1150" as="targetPoint"/>
                    </mxGeometry>
                </mxCell>
                <mxCell id="16" value="" style="endArrow=none;html=1;rounded=0;strokeWidth=3;exitX=0.5;exitY=1;exitDx=0;exitDy=0;entryX=0.655;entryY=0.062;entryDx=0;entryDy=0;entryPerimeter=0;" edge="1" parent="1" source="10" target="13">
                    <mxGeometry width="50" height="50" relative="1" as="geometry">
                        <mxPoint x="910" y="980" as="sourcePoint"/>
                        <mxPoint x="1020" y="1140" as="targetPoint"/>
                    </mxGeometry>
                </mxCell>
                <mxCell id="19" value="" style="endArrow=none;html=1;rounded=0;strokeWidth=3;exitX=0.75;exitY=1;exitDx=0;exitDy=0;entryX=0.5;entryY=0;entryDx=0;entryDy=0;" edge="1" parent="1" source="z0bDpxa67WknkqCjIjLZ-32" target="9">
                    <mxGeometry width="50" height="50" relative="1" as="geometry">
                        <mxPoint x="950" y="620" as="sourcePoint"/>
                        <mxPoint x="1395" y="1210" as="targetPoint"/>
                        <Array as="points">
                            <mxPoint x="960" y="1120"/>
                            <mxPoint x="1395" y="1120"/>
                        </Array>
                    </mxGeometry>
                </mxCell>
            </root>
        </mxGraphModel>
    </diagram>
</mxfile>